<mxfile host="app.diagrams.net" modified="2021-07-27T14:18:59.266Z" agent="5.0 (Windows NT 10.0; Win64; x64) AppleWebKit/537.36 (KHTML, like Gecko) Chrome/92.0.4515.107 Safari/537.36" etag="3cA19V3jcPc-apJZfzBZ" version="14.9.2" type="github">
  <diagram id="C5RBs43oDa-KdzZeNtuy" name="Page-1">
    <mxGraphModel dx="1172" dy="1931" grid="1" gridSize="10" guides="1" tooltips="1" connect="1" arrows="1" fold="1" page="1" pageScale="1" pageWidth="827" pageHeight="1169" math="0" shadow="0">
      <root>
        <mxCell id="WIyWlLk6GJQsqaUBKTNV-0" />
        <mxCell id="WIyWlLk6GJQsqaUBKTNV-1" parent="WIyWlLk6GJQsqaUBKTNV-0" />
        <mxCell id="WIyWlLk6GJQsqaUBKTNV-2" value="" style="rounded=0;html=1;jettySize=auto;orthogonalLoop=1;fontSize=11;endArrow=block;endFill=0;endSize=8;strokeWidth=1;shadow=0;labelBackgroundColor=none;edgeStyle=orthogonalEdgeStyle;exitX=0.5;exitY=1;exitDx=0;exitDy=0;entryX=0.5;entryY=0;entryDx=0;entryDy=0;" parent="WIyWlLk6GJQsqaUBKTNV-1" source="abcMeYUr5lSVvxz4oovf-0" target="abcMeYUr5lSVvxz4oovf-1" edge="1">
          <mxGeometry relative="1" as="geometry">
            <mxPoint x="220" y="120" as="sourcePoint" />
            <mxPoint x="220" y="170" as="targetPoint" />
          </mxGeometry>
        </mxCell>
        <mxCell id="abcMeYUr5lSVvxz4oovf-0" value="질문 관리 프로세스 시작" style="ellipse;whiteSpace=wrap;html=1;" parent="WIyWlLk6GJQsqaUBKTNV-1" vertex="1">
          <mxGeometry x="125" y="50" width="190" height="70" as="geometry" />
        </mxCell>
        <mxCell id="abcMeYUr5lSVvxz4oovf-1" value="질문 내용 입력" style="rounded=1;whiteSpace=wrap;html=1;fontSize=12;glass=0;strokeWidth=1;shadow=0;" parent="WIyWlLk6GJQsqaUBKTNV-1" vertex="1">
          <mxGeometry x="135" y="160" width="170" height="40" as="geometry" />
        </mxCell>
        <mxCell id="abcMeYUr5lSVvxz4oovf-3" value="" style="rounded=0;html=1;jettySize=auto;orthogonalLoop=1;fontSize=11;endArrow=block;endFill=0;endSize=8;strokeWidth=1;shadow=0;labelBackgroundColor=none;edgeStyle=orthogonalEdgeStyle;exitX=0.5;exitY=1;exitDx=0;exitDy=0;entryX=0.5;entryY=0;entryDx=0;entryDy=0;" parent="WIyWlLk6GJQsqaUBKTNV-1" source="abcMeYUr5lSVvxz4oovf-1" target="abcMeYUr5lSVvxz4oovf-4" edge="1">
          <mxGeometry relative="1" as="geometry">
            <mxPoint x="230" y="130" as="sourcePoint" />
            <mxPoint x="220" y="280" as="targetPoint" />
            <Array as="points" />
          </mxGeometry>
        </mxCell>
        <mxCell id="abcMeYUr5lSVvxz4oovf-4" value="질문에 해당하는 태그 선택" style="rounded=1;whiteSpace=wrap;html=1;fontSize=12;glass=0;strokeWidth=1;shadow=0;" parent="WIyWlLk6GJQsqaUBKTNV-1" vertex="1">
          <mxGeometry x="135" y="240" width="170" height="40" as="geometry" />
        </mxCell>
        <mxCell id="abcMeYUr5lSVvxz4oovf-6" value="질문 등록" style="shape=parallelogram;perimeter=parallelogramPerimeter;whiteSpace=wrap;html=1;fixedSize=1;" parent="WIyWlLk6GJQsqaUBKTNV-1" vertex="1">
          <mxGeometry x="160" y="320" width="120" height="40" as="geometry" />
        </mxCell>
        <mxCell id="abcMeYUr5lSVvxz4oovf-7" value="" style="rounded=0;html=1;jettySize=auto;orthogonalLoop=1;fontSize=11;endArrow=block;endFill=0;endSize=8;strokeWidth=1;shadow=0;labelBackgroundColor=none;edgeStyle=orthogonalEdgeStyle;exitX=0.5;exitY=1;exitDx=0;exitDy=0;entryX=0.5;entryY=0;entryDx=0;entryDy=0;" parent="WIyWlLk6GJQsqaUBKTNV-1" source="abcMeYUr5lSVvxz4oovf-4" target="abcMeYUr5lSVvxz4oovf-6" edge="1">
          <mxGeometry relative="1" as="geometry">
            <mxPoint x="230" y="210" as="sourcePoint" />
            <mxPoint x="230" y="250" as="targetPoint" />
            <Array as="points" />
          </mxGeometry>
        </mxCell>
        <mxCell id="abcMeYUr5lSVvxz4oovf-11" value="" style="rounded=0;html=1;jettySize=auto;orthogonalLoop=1;fontSize=11;endArrow=block;endFill=0;endSize=8;strokeWidth=1;shadow=0;labelBackgroundColor=none;edgeStyle=orthogonalEdgeStyle;exitX=0.5;exitY=1;exitDx=0;exitDy=0;entryX=0.5;entryY=0;entryDx=0;entryDy=0;" parent="WIyWlLk6GJQsqaUBKTNV-1" source="abcMeYUr5lSVvxz4oovf-6" target="abcMeYUr5lSVvxz4oovf-12" edge="1">
          <mxGeometry relative="1" as="geometry">
            <mxPoint x="230" y="290" as="sourcePoint" />
            <mxPoint x="220" y="400" as="targetPoint" />
            <Array as="points" />
          </mxGeometry>
        </mxCell>
        <mxCell id="abcMeYUr5lSVvxz4oovf-12" value="질문 관리 프로세스 완료" style="ellipse;whiteSpace=wrap;html=1;" parent="WIyWlLk6GJQsqaUBKTNV-1" vertex="1">
          <mxGeometry x="125" y="400" width="190" height="70" as="geometry" />
        </mxCell>
        <mxCell id="abcMeYUr5lSVvxz4oovf-22" value="" style="rounded=0;html=1;jettySize=auto;orthogonalLoop=1;fontSize=11;endArrow=block;endFill=0;endSize=8;strokeWidth=1;shadow=0;labelBackgroundColor=none;edgeStyle=orthogonalEdgeStyle;exitX=0.5;exitY=1;exitDx=0;exitDy=0;entryX=0.5;entryY=0;entryDx=0;entryDy=0;" parent="WIyWlLk6GJQsqaUBKTNV-1" source="abcMeYUr5lSVvxz4oovf-23" target="abcMeYUr5lSVvxz4oovf-24" edge="1">
          <mxGeometry relative="1" as="geometry">
            <mxPoint x="525" y="120" as="sourcePoint" />
            <mxPoint x="525" y="170" as="targetPoint" />
          </mxGeometry>
        </mxCell>
        <mxCell id="abcMeYUr5lSVvxz4oovf-23" value="묶음 관리 프로세스 시작" style="ellipse;whiteSpace=wrap;html=1;" parent="WIyWlLk6GJQsqaUBKTNV-1" vertex="1">
          <mxGeometry x="430" y="50" width="190" height="70" as="geometry" />
        </mxCell>
        <mxCell id="abcMeYUr5lSVvxz4oovf-24" value="묶음 주제 입력" style="rounded=1;whiteSpace=wrap;html=1;fontSize=12;glass=0;strokeWidth=1;shadow=0;" parent="WIyWlLk6GJQsqaUBKTNV-1" vertex="1">
          <mxGeometry x="440" y="160" width="170" height="40" as="geometry" />
        </mxCell>
        <mxCell id="abcMeYUr5lSVvxz4oovf-25" value="" style="rounded=0;html=1;jettySize=auto;orthogonalLoop=1;fontSize=11;endArrow=block;endFill=0;endSize=8;strokeWidth=1;shadow=0;labelBackgroundColor=none;edgeStyle=orthogonalEdgeStyle;exitX=0.5;exitY=1;exitDx=0;exitDy=0;entryX=0.5;entryY=0;entryDx=0;entryDy=0;" parent="WIyWlLk6GJQsqaUBKTNV-1" source="abcMeYUr5lSVvxz4oovf-24" target="abcMeYUr5lSVvxz4oovf-26" edge="1">
          <mxGeometry relative="1" as="geometry">
            <mxPoint x="535" y="130" as="sourcePoint" />
            <mxPoint x="525" y="280" as="targetPoint" />
            <Array as="points" />
          </mxGeometry>
        </mxCell>
        <mxCell id="abcMeYUr5lSVvxz4oovf-26" value="주제에 해당하는 질문 추가" style="rounded=1;whiteSpace=wrap;html=1;fontSize=12;glass=0;strokeWidth=1;shadow=0;" parent="WIyWlLk6GJQsqaUBKTNV-1" vertex="1">
          <mxGeometry x="440" y="240" width="170" height="40" as="geometry" />
        </mxCell>
        <mxCell id="abcMeYUr5lSVvxz4oovf-27" value="질문 등록" style="shape=parallelogram;perimeter=parallelogramPerimeter;whiteSpace=wrap;html=1;fixedSize=1;" parent="WIyWlLk6GJQsqaUBKTNV-1" vertex="1">
          <mxGeometry x="465" y="320" width="120" height="40" as="geometry" />
        </mxCell>
        <mxCell id="abcMeYUr5lSVvxz4oovf-28" value="" style="rounded=0;html=1;jettySize=auto;orthogonalLoop=1;fontSize=11;endArrow=block;endFill=0;endSize=8;strokeWidth=1;shadow=0;labelBackgroundColor=none;edgeStyle=orthogonalEdgeStyle;exitX=0.5;exitY=1;exitDx=0;exitDy=0;entryX=0.5;entryY=0;entryDx=0;entryDy=0;" parent="WIyWlLk6GJQsqaUBKTNV-1" source="abcMeYUr5lSVvxz4oovf-26" target="abcMeYUr5lSVvxz4oovf-27" edge="1">
          <mxGeometry relative="1" as="geometry">
            <mxPoint x="535" y="210" as="sourcePoint" />
            <mxPoint x="535" y="250" as="targetPoint" />
            <Array as="points" />
          </mxGeometry>
        </mxCell>
        <mxCell id="abcMeYUr5lSVvxz4oovf-29" value="" style="rounded=0;html=1;jettySize=auto;orthogonalLoop=1;fontSize=11;endArrow=block;endFill=0;endSize=8;strokeWidth=1;shadow=0;labelBackgroundColor=none;edgeStyle=orthogonalEdgeStyle;exitX=0.5;exitY=1;exitDx=0;exitDy=0;entryX=0.5;entryY=0;entryDx=0;entryDy=0;" parent="WIyWlLk6GJQsqaUBKTNV-1" source="abcMeYUr5lSVvxz4oovf-27" target="abcMeYUr5lSVvxz4oovf-30" edge="1">
          <mxGeometry relative="1" as="geometry">
            <mxPoint x="535" y="290" as="sourcePoint" />
            <mxPoint x="525" y="400" as="targetPoint" />
            <Array as="points" />
          </mxGeometry>
        </mxCell>
        <mxCell id="abcMeYUr5lSVvxz4oovf-30" value="질문 관리 프로세스 완료" style="ellipse;whiteSpace=wrap;html=1;" parent="WIyWlLk6GJQsqaUBKTNV-1" vertex="1">
          <mxGeometry x="430" y="400" width="190" height="70" as="geometry" />
        </mxCell>
        <mxCell id="abcMeYUr5lSVvxz4oovf-31" value="" style="rounded=0;html=1;jettySize=auto;orthogonalLoop=1;fontSize=11;endArrow=block;endFill=0;endSize=8;strokeWidth=1;shadow=0;labelBackgroundColor=none;edgeStyle=orthogonalEdgeStyle;exitX=0.5;exitY=1;exitDx=0;exitDy=0;entryX=0.5;entryY=0;entryDx=0;entryDy=0;" parent="WIyWlLk6GJQsqaUBKTNV-1" source="abcMeYUr5lSVvxz4oovf-32" target="abcMeYUr5lSVvxz4oovf-33" edge="1">
          <mxGeometry relative="1" as="geometry">
            <mxPoint x="825" y="120" as="sourcePoint" />
            <mxPoint x="825" y="170" as="targetPoint" />
          </mxGeometry>
        </mxCell>
        <mxCell id="abcMeYUr5lSVvxz4oovf-32" value="과정 관리 프로세스 시작" style="ellipse;whiteSpace=wrap;html=1;" parent="WIyWlLk6GJQsqaUBKTNV-1" vertex="1">
          <mxGeometry x="730" y="50" width="190" height="70" as="geometry" />
        </mxCell>
        <mxCell id="abcMeYUr5lSVvxz4oovf-33" value="과정 주제 입력" style="rounded=1;whiteSpace=wrap;html=1;fontSize=12;glass=0;strokeWidth=1;shadow=0;" parent="WIyWlLk6GJQsqaUBKTNV-1" vertex="1">
          <mxGeometry x="740" y="160" width="170" height="40" as="geometry" />
        </mxCell>
        <mxCell id="abcMeYUr5lSVvxz4oovf-34" value="" style="rounded=0;html=1;jettySize=auto;orthogonalLoop=1;fontSize=11;endArrow=block;endFill=0;endSize=8;strokeWidth=1;shadow=0;labelBackgroundColor=none;edgeStyle=orthogonalEdgeStyle;exitX=0.5;exitY=1;exitDx=0;exitDy=0;entryX=0.5;entryY=0;entryDx=0;entryDy=0;" parent="WIyWlLk6GJQsqaUBKTNV-1" source="abcMeYUr5lSVvxz4oovf-33" target="abcMeYUr5lSVvxz4oovf-35" edge="1">
          <mxGeometry relative="1" as="geometry">
            <mxPoint x="835" y="130" as="sourcePoint" />
            <mxPoint x="825" y="280" as="targetPoint" />
            <Array as="points" />
          </mxGeometry>
        </mxCell>
        <mxCell id="abcMeYUr5lSVvxz4oovf-35" value="과정에 해당하는 묶음 추가 &amp;amp; 순서 정하기" style="rounded=1;whiteSpace=wrap;html=1;fontSize=12;glass=0;strokeWidth=1;shadow=0;" parent="WIyWlLk6GJQsqaUBKTNV-1" vertex="1">
          <mxGeometry x="740" y="240" width="170" height="40" as="geometry" />
        </mxCell>
        <mxCell id="abcMeYUr5lSVvxz4oovf-36" value="과정 등록" style="shape=parallelogram;perimeter=parallelogramPerimeter;whiteSpace=wrap;html=1;fixedSize=1;" parent="WIyWlLk6GJQsqaUBKTNV-1" vertex="1">
          <mxGeometry x="765" y="320" width="120" height="40" as="geometry" />
        </mxCell>
        <mxCell id="abcMeYUr5lSVvxz4oovf-37" value="" style="rounded=0;html=1;jettySize=auto;orthogonalLoop=1;fontSize=11;endArrow=block;endFill=0;endSize=8;strokeWidth=1;shadow=0;labelBackgroundColor=none;edgeStyle=orthogonalEdgeStyle;exitX=0.5;exitY=1;exitDx=0;exitDy=0;entryX=0.5;entryY=0;entryDx=0;entryDy=0;" parent="WIyWlLk6GJQsqaUBKTNV-1" source="abcMeYUr5lSVvxz4oovf-35" target="abcMeYUr5lSVvxz4oovf-36" edge="1">
          <mxGeometry relative="1" as="geometry">
            <mxPoint x="835" y="210" as="sourcePoint" />
            <mxPoint x="835" y="250" as="targetPoint" />
            <Array as="points" />
          </mxGeometry>
        </mxCell>
        <mxCell id="abcMeYUr5lSVvxz4oovf-38" value="" style="rounded=0;html=1;jettySize=auto;orthogonalLoop=1;fontSize=11;endArrow=block;endFill=0;endSize=8;strokeWidth=1;shadow=0;labelBackgroundColor=none;edgeStyle=orthogonalEdgeStyle;exitX=0.5;exitY=1;exitDx=0;exitDy=0;entryX=0.5;entryY=0;entryDx=0;entryDy=0;" parent="WIyWlLk6GJQsqaUBKTNV-1" source="abcMeYUr5lSVvxz4oovf-36" target="abcMeYUr5lSVvxz4oovf-39" edge="1">
          <mxGeometry relative="1" as="geometry">
            <mxPoint x="835" y="290" as="sourcePoint" />
            <mxPoint x="825" y="400" as="targetPoint" />
            <Array as="points" />
          </mxGeometry>
        </mxCell>
        <mxCell id="abcMeYUr5lSVvxz4oovf-39" value="과정 관리 프로세스 완료" style="ellipse;whiteSpace=wrap;html=1;" parent="WIyWlLk6GJQsqaUBKTNV-1" vertex="1">
          <mxGeometry x="730" y="400" width="190" height="70" as="geometry" />
        </mxCell>
        <mxCell id="abcMeYUr5lSVvxz4oovf-40" value="" style="endArrow=classic;html=1;entryX=0;entryY=0.5;entryDx=0;entryDy=0;exitX=1;exitY=0.5;exitDx=0;exitDy=0;" parent="WIyWlLk6GJQsqaUBKTNV-1" source="abcMeYUr5lSVvxz4oovf-12" target="abcMeYUr5lSVvxz4oovf-23" edge="1">
          <mxGeometry width="50" height="50" relative="1" as="geometry">
            <mxPoint x="320" y="400" as="sourcePoint" />
            <mxPoint x="410" y="120" as="targetPoint" />
          </mxGeometry>
        </mxCell>
        <mxCell id="abcMeYUr5lSVvxz4oovf-41" value="" style="endArrow=classic;html=1;entryX=0;entryY=0.5;entryDx=0;entryDy=0;exitX=1;exitY=0.5;exitDx=0;exitDy=0;" parent="WIyWlLk6GJQsqaUBKTNV-1" source="abcMeYUr5lSVvxz4oovf-30" target="abcMeYUr5lSVvxz4oovf-32" edge="1">
          <mxGeometry width="50" height="50" relative="1" as="geometry">
            <mxPoint x="609.9999999999998" y="434.9999999999999" as="sourcePoint" />
            <mxPoint x="725" y="85" as="targetPoint" />
          </mxGeometry>
        </mxCell>
        <mxCell id="_ABAwHwt_FzfQojOqL4a-0" value="" style="rounded=0;html=1;jettySize=auto;orthogonalLoop=1;fontSize=11;endArrow=block;endFill=0;endSize=8;strokeWidth=1;shadow=0;labelBackgroundColor=none;edgeStyle=orthogonalEdgeStyle;exitX=0.5;exitY=1;exitDx=0;exitDy=0;entryX=0.5;entryY=0;entryDx=0;entryDy=0;" edge="1" parent="WIyWlLk6GJQsqaUBKTNV-1" source="_ABAwHwt_FzfQojOqL4a-1" target="_ABAwHwt_FzfQojOqL4a-2">
          <mxGeometry relative="1" as="geometry">
            <mxPoint x="1215" y="120" as="sourcePoint" />
            <mxPoint x="1215" y="170" as="targetPoint" />
          </mxGeometry>
        </mxCell>
        <mxCell id="_ABAwHwt_FzfQojOqL4a-1" value="관리자 음식 승인하기 프로세스" style="ellipse;whiteSpace=wrap;html=1;" vertex="1" parent="WIyWlLk6GJQsqaUBKTNV-1">
          <mxGeometry x="1120" y="50" width="190" height="70" as="geometry" />
        </mxCell>
        <mxCell id="_ABAwHwt_FzfQojOqL4a-2" value="음식명, 카테고리, 태그, &lt;br&gt;국가 확인" style="rounded=1;whiteSpace=wrap;html=1;fontSize=12;glass=0;strokeWidth=1;shadow=0;" vertex="1" parent="WIyWlLk6GJQsqaUBKTNV-1">
          <mxGeometry x="1130" y="160" width="170" height="40" as="geometry" />
        </mxCell>
        <mxCell id="_ABAwHwt_FzfQojOqL4a-3" value="" style="rounded=0;html=1;jettySize=auto;orthogonalLoop=1;fontSize=11;endArrow=block;endFill=0;endSize=8;strokeWidth=1;shadow=0;labelBackgroundColor=none;edgeStyle=orthogonalEdgeStyle;exitX=0.5;exitY=1;exitDx=0;exitDy=0;entryX=0.5;entryY=0;entryDx=0;entryDy=0;" edge="1" parent="WIyWlLk6GJQsqaUBKTNV-1" source="_ABAwHwt_FzfQojOqL4a-2" target="_ABAwHwt_FzfQojOqL4a-4">
          <mxGeometry relative="1" as="geometry">
            <mxPoint x="1225" y="130" as="sourcePoint" />
            <mxPoint x="1215" y="280" as="targetPoint" />
            <Array as="points" />
          </mxGeometry>
        </mxCell>
        <mxCell id="_ABAwHwt_FzfQojOqL4a-4" value="카테고리 승인 여부 선택" style="rounded=1;whiteSpace=wrap;html=1;fontSize=12;glass=0;strokeWidth=1;shadow=0;" vertex="1" parent="WIyWlLk6GJQsqaUBKTNV-1">
          <mxGeometry x="1130" y="240" width="170" height="40" as="geometry" />
        </mxCell>
        <mxCell id="_ABAwHwt_FzfQojOqL4a-5" value="음식 업데이트" style="shape=parallelogram;perimeter=parallelogramPerimeter;whiteSpace=wrap;html=1;fixedSize=1;" vertex="1" parent="WIyWlLk6GJQsqaUBKTNV-1">
          <mxGeometry x="1155" y="320" width="120" height="40" as="geometry" />
        </mxCell>
        <mxCell id="_ABAwHwt_FzfQojOqL4a-6" value="" style="rounded=0;html=1;jettySize=auto;orthogonalLoop=1;fontSize=11;endArrow=block;endFill=0;endSize=8;strokeWidth=1;shadow=0;labelBackgroundColor=none;edgeStyle=orthogonalEdgeStyle;exitX=0.5;exitY=1;exitDx=0;exitDy=0;entryX=0.5;entryY=0;entryDx=0;entryDy=0;" edge="1" parent="WIyWlLk6GJQsqaUBKTNV-1" source="_ABAwHwt_FzfQojOqL4a-4" target="_ABAwHwt_FzfQojOqL4a-5">
          <mxGeometry relative="1" as="geometry">
            <mxPoint x="1225" y="210" as="sourcePoint" />
            <mxPoint x="1225" y="250" as="targetPoint" />
            <Array as="points" />
          </mxGeometry>
        </mxCell>
        <mxCell id="_ABAwHwt_FzfQojOqL4a-7" value="" style="rounded=0;html=1;jettySize=auto;orthogonalLoop=1;fontSize=11;endArrow=block;endFill=0;endSize=8;strokeWidth=1;shadow=0;labelBackgroundColor=none;edgeStyle=orthogonalEdgeStyle;exitX=0.5;exitY=1;exitDx=0;exitDy=0;entryX=0.5;entryY=0;entryDx=0;entryDy=0;" edge="1" parent="WIyWlLk6GJQsqaUBKTNV-1" source="_ABAwHwt_FzfQojOqL4a-5" target="_ABAwHwt_FzfQojOqL4a-8">
          <mxGeometry relative="1" as="geometry">
            <mxPoint x="1225" y="290" as="sourcePoint" />
            <mxPoint x="1215" y="400" as="targetPoint" />
            <Array as="points" />
          </mxGeometry>
        </mxCell>
        <mxCell id="_ABAwHwt_FzfQojOqL4a-8" value="관리자 음식 승인하기 &lt;br&gt;프로세스 완료" style="ellipse;whiteSpace=wrap;html=1;" vertex="1" parent="WIyWlLk6GJQsqaUBKTNV-1">
          <mxGeometry x="1120" y="400" width="190" height="70" as="geometry" />
        </mxCell>
        <mxCell id="_ABAwHwt_FzfQojOqL4a-9" value="관리자 로그인 상태" style="shape=hexagon;perimeter=hexagonPerimeter2;whiteSpace=wrap;html=1;fixedSize=1;" vertex="1" parent="WIyWlLk6GJQsqaUBKTNV-1">
          <mxGeometry x="1155" y="-40" width="120" height="40" as="geometry" />
        </mxCell>
        <mxCell id="_ABAwHwt_FzfQojOqL4a-10" value="" style="rounded=0;html=1;jettySize=auto;orthogonalLoop=1;fontSize=11;endArrow=block;endFill=0;endSize=8;strokeWidth=1;shadow=0;labelBackgroundColor=none;edgeStyle=orthogonalEdgeStyle;exitX=0.5;exitY=1;exitDx=0;exitDy=0;entryX=0.5;entryY=0;entryDx=0;entryDy=0;" edge="1" parent="WIyWlLk6GJQsqaUBKTNV-1" source="_ABAwHwt_FzfQojOqL4a-11">
          <mxGeometry relative="1" as="geometry">
            <mxPoint x="1535" y="120" as="sourcePoint" />
            <mxPoint x="1535" y="159.99999999999977" as="targetPoint" />
          </mxGeometry>
        </mxCell>
        <mxCell id="_ABAwHwt_FzfQojOqL4a-11" value="사용자 음식 조회 프로세스" style="ellipse;whiteSpace=wrap;html=1;" vertex="1" parent="WIyWlLk6GJQsqaUBKTNV-1">
          <mxGeometry x="1440" y="50" width="190" height="70" as="geometry" />
        </mxCell>
        <mxCell id="_ABAwHwt_FzfQojOqL4a-17" value="" style="rounded=0;html=1;jettySize=auto;orthogonalLoop=1;fontSize=11;endArrow=block;endFill=0;endSize=8;strokeWidth=1;shadow=0;labelBackgroundColor=none;edgeStyle=orthogonalEdgeStyle;exitX=0.5;exitY=1;exitDx=0;exitDy=0;entryX=0.5;entryY=0;entryDx=0;entryDy=0;" edge="1" parent="WIyWlLk6GJQsqaUBKTNV-1" target="_ABAwHwt_FzfQojOqL4a-18">
          <mxGeometry relative="1" as="geometry">
            <mxPoint x="1535" y="320" as="sourcePoint" />
            <mxPoint x="1535" y="360" as="targetPoint" />
            <Array as="points" />
          </mxGeometry>
        </mxCell>
        <mxCell id="_ABAwHwt_FzfQojOqL4a-18" value="사용자 음식 조회 &lt;br&gt;프로세스 완료" style="ellipse;whiteSpace=wrap;html=1;" vertex="1" parent="WIyWlLk6GJQsqaUBKTNV-1">
          <mxGeometry x="1440" y="360" width="190" height="70" as="geometry" />
        </mxCell>
        <mxCell id="_ABAwHwt_FzfQojOqL4a-19" value="" style="endArrow=classic;html=1;exitX=1;exitY=0.5;exitDx=0;exitDy=0;entryX=0;entryY=0.5;entryDx=0;entryDy=0;" edge="1" parent="WIyWlLk6GJQsqaUBKTNV-1" source="_ABAwHwt_FzfQojOqL4a-8" target="_ABAwHwt_FzfQojOqL4a-11">
          <mxGeometry width="50" height="50" relative="1" as="geometry">
            <mxPoint x="1350" y="290" as="sourcePoint" />
            <mxPoint x="1400" y="240" as="targetPoint" />
          </mxGeometry>
        </mxCell>
        <mxCell id="_ABAwHwt_FzfQojOqL4a-20" value="승인 되었나?" style="rhombus;whiteSpace=wrap;html=1;" vertex="1" parent="WIyWlLk6GJQsqaUBKTNV-1">
          <mxGeometry x="1455" y="160" width="160" height="80" as="geometry" />
        </mxCell>
        <mxCell id="_ABAwHwt_FzfQojOqL4a-21" value="" style="rounded=0;html=1;jettySize=auto;orthogonalLoop=1;fontSize=11;endArrow=block;endFill=0;endSize=8;strokeWidth=1;shadow=0;labelBackgroundColor=none;edgeStyle=orthogonalEdgeStyle;exitX=1;exitY=0.5;exitDx=0;exitDy=0;" edge="1" parent="WIyWlLk6GJQsqaUBKTNV-1" source="_ABAwHwt_FzfQojOqL4a-20">
          <mxGeometry relative="1" as="geometry">
            <mxPoint x="1620" y="200" as="sourcePoint" />
            <mxPoint x="1680" y="200" as="targetPoint" />
            <Array as="points" />
          </mxGeometry>
        </mxCell>
        <mxCell id="_ABAwHwt_FzfQojOqL4a-22" value="No" style="text;html=1;strokeColor=none;fillColor=none;align=center;verticalAlign=middle;whiteSpace=wrap;rounded=0;" vertex="1" parent="WIyWlLk6GJQsqaUBKTNV-1">
          <mxGeometry x="1630" y="180" width="40" height="20" as="geometry" />
        </mxCell>
        <mxCell id="_ABAwHwt_FzfQojOqL4a-23" value="조회 &lt;br&gt;(추천 받기, &lt;br&gt;포스트에 음식 기재하기) &lt;br&gt;할 수 없음" style="rounded=1;whiteSpace=wrap;html=1;fontSize=12;glass=0;strokeWidth=1;shadow=0;" vertex="1" parent="WIyWlLk6GJQsqaUBKTNV-1">
          <mxGeometry x="1680" y="160" width="170" height="80" as="geometry" />
        </mxCell>
        <mxCell id="_ABAwHwt_FzfQojOqL4a-25" value="" style="rounded=0;html=1;jettySize=auto;orthogonalLoop=1;fontSize=11;endArrow=block;endFill=0;endSize=8;strokeWidth=1;shadow=0;labelBackgroundColor=none;edgeStyle=orthogonalEdgeStyle;exitX=0.5;exitY=1;exitDx=0;exitDy=0;entryX=0.5;entryY=0;entryDx=0;entryDy=0;" edge="1" parent="WIyWlLk6GJQsqaUBKTNV-1" source="_ABAwHwt_FzfQojOqL4a-20" target="_ABAwHwt_FzfQojOqL4a-26">
          <mxGeometry relative="1" as="geometry">
            <mxPoint x="1545" y="129.99999999999977" as="sourcePoint" />
            <mxPoint x="1535" y="320" as="targetPoint" />
          </mxGeometry>
        </mxCell>
        <mxCell id="_ABAwHwt_FzfQojOqL4a-26" value="음식 조회 가능" style="rounded=1;whiteSpace=wrap;html=1;fontSize=12;glass=0;strokeWidth=1;shadow=0;" vertex="1" parent="WIyWlLk6GJQsqaUBKTNV-1">
          <mxGeometry x="1450" y="280" width="170" height="40" as="geometry" />
        </mxCell>
        <mxCell id="_ABAwHwt_FzfQojOqL4a-28" value="" style="rounded=0;html=1;jettySize=auto;orthogonalLoop=1;fontSize=11;endArrow=block;endFill=0;endSize=8;strokeWidth=1;shadow=0;labelBackgroundColor=none;edgeStyle=orthogonalEdgeStyle;exitX=0.5;exitY=1;exitDx=0;exitDy=0;entryX=0.5;entryY=0;entryDx=0;entryDy=0;" edge="1" parent="WIyWlLk6GJQsqaUBKTNV-1" source="_ABAwHwt_FzfQojOqL4a-29" target="_ABAwHwt_FzfQojOqL4a-30">
          <mxGeometry relative="1" as="geometry">
            <mxPoint x="2015" y="120" as="sourcePoint" />
            <mxPoint x="2015" y="170" as="targetPoint" />
          </mxGeometry>
        </mxCell>
        <mxCell id="_ABAwHwt_FzfQojOqL4a-29" value="관리자 음식 등록하기 프로세스" style="ellipse;whiteSpace=wrap;html=1;" vertex="1" parent="WIyWlLk6GJQsqaUBKTNV-1">
          <mxGeometry x="1920" y="50" width="190" height="70" as="geometry" />
        </mxCell>
        <mxCell id="_ABAwHwt_FzfQojOqL4a-30" value="음식명, 카테고리, 태그, &lt;br&gt;국가 입력" style="rounded=1;whiteSpace=wrap;html=1;fontSize=12;glass=0;strokeWidth=1;shadow=0;" vertex="1" parent="WIyWlLk6GJQsqaUBKTNV-1">
          <mxGeometry x="1930" y="160" width="170" height="40" as="geometry" />
        </mxCell>
        <mxCell id="_ABAwHwt_FzfQojOqL4a-31" value="" style="rounded=0;html=1;jettySize=auto;orthogonalLoop=1;fontSize=11;endArrow=block;endFill=0;endSize=8;strokeWidth=1;shadow=0;labelBackgroundColor=none;edgeStyle=orthogonalEdgeStyle;exitX=0.5;exitY=1;exitDx=0;exitDy=0;entryX=0.5;entryY=0;entryDx=0;entryDy=0;" edge="1" parent="WIyWlLk6GJQsqaUBKTNV-1" source="_ABAwHwt_FzfQojOqL4a-30" target="_ABAwHwt_FzfQojOqL4a-32">
          <mxGeometry relative="1" as="geometry">
            <mxPoint x="2025" y="130" as="sourcePoint" />
            <mxPoint x="2015" y="280" as="targetPoint" />
            <Array as="points" />
          </mxGeometry>
        </mxCell>
        <mxCell id="_ABAwHwt_FzfQojOqL4a-32" value="카테고리 승인 여부 선택&lt;br&gt;(기본 승인)" style="rounded=1;whiteSpace=wrap;html=1;fontSize=12;glass=0;strokeWidth=1;shadow=0;" vertex="1" parent="WIyWlLk6GJQsqaUBKTNV-1">
          <mxGeometry x="1930" y="240" width="170" height="40" as="geometry" />
        </mxCell>
        <mxCell id="_ABAwHwt_FzfQojOqL4a-33" value="음식 등록" style="shape=parallelogram;perimeter=parallelogramPerimeter;whiteSpace=wrap;html=1;fixedSize=1;" vertex="1" parent="WIyWlLk6GJQsqaUBKTNV-1">
          <mxGeometry x="1955" y="320" width="120" height="40" as="geometry" />
        </mxCell>
        <mxCell id="_ABAwHwt_FzfQojOqL4a-34" value="" style="rounded=0;html=1;jettySize=auto;orthogonalLoop=1;fontSize=11;endArrow=block;endFill=0;endSize=8;strokeWidth=1;shadow=0;labelBackgroundColor=none;edgeStyle=orthogonalEdgeStyle;exitX=0.5;exitY=1;exitDx=0;exitDy=0;entryX=0.5;entryY=0;entryDx=0;entryDy=0;" edge="1" parent="WIyWlLk6GJQsqaUBKTNV-1" source="_ABAwHwt_FzfQojOqL4a-32" target="_ABAwHwt_FzfQojOqL4a-33">
          <mxGeometry relative="1" as="geometry">
            <mxPoint x="2025" y="210" as="sourcePoint" />
            <mxPoint x="2025" y="250" as="targetPoint" />
            <Array as="points" />
          </mxGeometry>
        </mxCell>
        <mxCell id="_ABAwHwt_FzfQojOqL4a-35" value="" style="rounded=0;html=1;jettySize=auto;orthogonalLoop=1;fontSize=11;endArrow=block;endFill=0;endSize=8;strokeWidth=1;shadow=0;labelBackgroundColor=none;edgeStyle=orthogonalEdgeStyle;exitX=0.5;exitY=1;exitDx=0;exitDy=0;entryX=0.5;entryY=0;entryDx=0;entryDy=0;" edge="1" parent="WIyWlLk6GJQsqaUBKTNV-1" source="_ABAwHwt_FzfQojOqL4a-33" target="_ABAwHwt_FzfQojOqL4a-36">
          <mxGeometry relative="1" as="geometry">
            <mxPoint x="2025" y="290" as="sourcePoint" />
            <mxPoint x="2015" y="400" as="targetPoint" />
            <Array as="points" />
          </mxGeometry>
        </mxCell>
        <mxCell id="_ABAwHwt_FzfQojOqL4a-36" value="관리자 음식 등록하기&amp;nbsp;&lt;br&gt;프로세스 완료" style="ellipse;whiteSpace=wrap;html=1;" vertex="1" parent="WIyWlLk6GJQsqaUBKTNV-1">
          <mxGeometry x="1920" y="400" width="190" height="70" as="geometry" />
        </mxCell>
        <mxCell id="_ABAwHwt_FzfQojOqL4a-37" value="관리자 로그인 상태" style="shape=hexagon;perimeter=hexagonPerimeter2;whiteSpace=wrap;html=1;fixedSize=1;" vertex="1" parent="WIyWlLk6GJQsqaUBKTNV-1">
          <mxGeometry x="1955" y="-40" width="120" height="40" as="geometry" />
        </mxCell>
        <mxCell id="_ABAwHwt_FzfQojOqL4a-38" value="" style="rounded=0;html=1;jettySize=auto;orthogonalLoop=1;fontSize=11;endArrow=block;endFill=0;endSize=8;strokeWidth=1;shadow=0;labelBackgroundColor=none;edgeStyle=orthogonalEdgeStyle;exitX=0.5;exitY=1;exitDx=0;exitDy=0;entryX=0.5;entryY=0;entryDx=0;entryDy=0;" edge="1" parent="WIyWlLk6GJQsqaUBKTNV-1" source="_ABAwHwt_FzfQojOqL4a-39" target="_ABAwHwt_FzfQojOqL4a-40">
          <mxGeometry relative="1" as="geometry">
            <mxPoint x="2315" y="120" as="sourcePoint" />
            <mxPoint x="2315" y="170" as="targetPoint" />
          </mxGeometry>
        </mxCell>
        <mxCell id="_ABAwHwt_FzfQojOqL4a-39" value="관리자 음식 수정하기 프로세스" style="ellipse;whiteSpace=wrap;html=1;" vertex="1" parent="WIyWlLk6GJQsqaUBKTNV-1">
          <mxGeometry x="2220" y="50" width="190" height="70" as="geometry" />
        </mxCell>
        <mxCell id="_ABAwHwt_FzfQojOqL4a-40" value="음식명, 카테고리, 태그, 국가&lt;br&gt;입력" style="rounded=1;whiteSpace=wrap;html=1;fontSize=12;glass=0;strokeWidth=1;shadow=0;" vertex="1" parent="WIyWlLk6GJQsqaUBKTNV-1">
          <mxGeometry x="2230" y="160" width="170" height="40" as="geometry" />
        </mxCell>
        <mxCell id="_ABAwHwt_FzfQojOqL4a-41" value="" style="rounded=0;html=1;jettySize=auto;orthogonalLoop=1;fontSize=11;endArrow=block;endFill=0;endSize=8;strokeWidth=1;shadow=0;labelBackgroundColor=none;edgeStyle=orthogonalEdgeStyle;exitX=0.5;exitY=1;exitDx=0;exitDy=0;entryX=0.5;entryY=0;entryDx=0;entryDy=0;" edge="1" parent="WIyWlLk6GJQsqaUBKTNV-1" source="_ABAwHwt_FzfQojOqL4a-40" target="_ABAwHwt_FzfQojOqL4a-42">
          <mxGeometry relative="1" as="geometry">
            <mxPoint x="2325" y="130" as="sourcePoint" />
            <mxPoint x="2315" y="280" as="targetPoint" />
            <Array as="points" />
          </mxGeometry>
        </mxCell>
        <mxCell id="_ABAwHwt_FzfQojOqL4a-42" value="승인 여부 선택" style="rounded=1;whiteSpace=wrap;html=1;fontSize=12;glass=0;strokeWidth=1;shadow=0;" vertex="1" parent="WIyWlLk6GJQsqaUBKTNV-1">
          <mxGeometry x="2230" y="240" width="170" height="40" as="geometry" />
        </mxCell>
        <mxCell id="_ABAwHwt_FzfQojOqL4a-43" value="음식 업데이트" style="shape=parallelogram;perimeter=parallelogramPerimeter;whiteSpace=wrap;html=1;fixedSize=1;" vertex="1" parent="WIyWlLk6GJQsqaUBKTNV-1">
          <mxGeometry x="2255" y="320" width="120" height="40" as="geometry" />
        </mxCell>
        <mxCell id="_ABAwHwt_FzfQojOqL4a-44" value="" style="rounded=0;html=1;jettySize=auto;orthogonalLoop=1;fontSize=11;endArrow=block;endFill=0;endSize=8;strokeWidth=1;shadow=0;labelBackgroundColor=none;edgeStyle=orthogonalEdgeStyle;exitX=0.5;exitY=1;exitDx=0;exitDy=0;entryX=0.5;entryY=0;entryDx=0;entryDy=0;" edge="1" parent="WIyWlLk6GJQsqaUBKTNV-1" source="_ABAwHwt_FzfQojOqL4a-42" target="_ABAwHwt_FzfQojOqL4a-43">
          <mxGeometry relative="1" as="geometry">
            <mxPoint x="2325" y="210" as="sourcePoint" />
            <mxPoint x="2325" y="250" as="targetPoint" />
            <Array as="points" />
          </mxGeometry>
        </mxCell>
        <mxCell id="_ABAwHwt_FzfQojOqL4a-45" value="" style="rounded=0;html=1;jettySize=auto;orthogonalLoop=1;fontSize=11;endArrow=block;endFill=0;endSize=8;strokeWidth=1;shadow=0;labelBackgroundColor=none;edgeStyle=orthogonalEdgeStyle;exitX=0.5;exitY=1;exitDx=0;exitDy=0;entryX=0.5;entryY=0;entryDx=0;entryDy=0;" edge="1" parent="WIyWlLk6GJQsqaUBKTNV-1" source="_ABAwHwt_FzfQojOqL4a-43" target="_ABAwHwt_FzfQojOqL4a-46">
          <mxGeometry relative="1" as="geometry">
            <mxPoint x="2325" y="290" as="sourcePoint" />
            <mxPoint x="2315" y="400" as="targetPoint" />
            <Array as="points" />
          </mxGeometry>
        </mxCell>
        <mxCell id="_ABAwHwt_FzfQojOqL4a-46" value="관리자 음식 수정하기&amp;nbsp;&lt;br&gt;프로세스 완료" style="ellipse;whiteSpace=wrap;html=1;" vertex="1" parent="WIyWlLk6GJQsqaUBKTNV-1">
          <mxGeometry x="2220" y="400" width="190" height="70" as="geometry" />
        </mxCell>
        <mxCell id="_ABAwHwt_FzfQojOqL4a-47" value="관리자 로그인 상태" style="shape=hexagon;perimeter=hexagonPerimeter2;whiteSpace=wrap;html=1;fixedSize=1;" vertex="1" parent="WIyWlLk6GJQsqaUBKTNV-1">
          <mxGeometry x="2255" y="-40" width="120" height="40" as="geometry" />
        </mxCell>
        <mxCell id="_ABAwHwt_FzfQojOqL4a-48" value="" style="rounded=0;html=1;jettySize=auto;orthogonalLoop=1;fontSize=11;endArrow=block;endFill=0;endSize=8;strokeWidth=1;shadow=0;labelBackgroundColor=none;edgeStyle=orthogonalEdgeStyle;exitX=0.5;exitY=1;exitDx=0;exitDy=0;entryX=0.5;entryY=0;entryDx=0;entryDy=0;" edge="1" parent="WIyWlLk6GJQsqaUBKTNV-1" source="_ABAwHwt_FzfQojOqL4a-49" target="_ABAwHwt_FzfQojOqL4a-50">
          <mxGeometry relative="1" as="geometry">
            <mxPoint x="2605" y="120" as="sourcePoint" />
            <mxPoint x="2605" y="170" as="targetPoint" />
          </mxGeometry>
        </mxCell>
        <mxCell id="_ABAwHwt_FzfQojOqL4a-49" value="관리자 음식 삭제하기 프로세스" style="ellipse;whiteSpace=wrap;html=1;" vertex="1" parent="WIyWlLk6GJQsqaUBKTNV-1">
          <mxGeometry x="2510" y="50" width="190" height="70" as="geometry" />
        </mxCell>
        <mxCell id="_ABAwHwt_FzfQojOqL4a-50" value="음식 선택" style="rounded=1;whiteSpace=wrap;html=1;fontSize=12;glass=0;strokeWidth=1;shadow=0;" vertex="1" parent="WIyWlLk6GJQsqaUBKTNV-1">
          <mxGeometry x="2520" y="160" width="170" height="40" as="geometry" />
        </mxCell>
        <mxCell id="_ABAwHwt_FzfQojOqL4a-51" value="" style="rounded=0;html=1;jettySize=auto;orthogonalLoop=1;fontSize=11;endArrow=block;endFill=0;endSize=8;strokeWidth=1;shadow=0;labelBackgroundColor=none;edgeStyle=orthogonalEdgeStyle;exitX=0.5;exitY=1;exitDx=0;exitDy=0;entryX=0.5;entryY=0;entryDx=0;entryDy=0;" edge="1" parent="WIyWlLk6GJQsqaUBKTNV-1" source="_ABAwHwt_FzfQojOqL4a-50" target="_ABAwHwt_FzfQojOqL4a-52">
          <mxGeometry relative="1" as="geometry">
            <mxPoint x="2615" y="130" as="sourcePoint" />
            <mxPoint x="2605" y="280" as="targetPoint" />
            <Array as="points" />
          </mxGeometry>
        </mxCell>
        <mxCell id="_ABAwHwt_FzfQojOqL4a-52" value="음식 삭제 사유 입력" style="rounded=1;whiteSpace=wrap;html=1;fontSize=12;glass=0;strokeWidth=1;shadow=0;" vertex="1" parent="WIyWlLk6GJQsqaUBKTNV-1">
          <mxGeometry x="2520" y="240" width="170" height="40" as="geometry" />
        </mxCell>
        <mxCell id="_ABAwHwt_FzfQojOqL4a-53" value="음식 삭제" style="shape=parallelogram;perimeter=parallelogramPerimeter;whiteSpace=wrap;html=1;fixedSize=1;" vertex="1" parent="WIyWlLk6GJQsqaUBKTNV-1">
          <mxGeometry x="2545" y="320" width="120" height="40" as="geometry" />
        </mxCell>
        <mxCell id="_ABAwHwt_FzfQojOqL4a-54" value="" style="rounded=0;html=1;jettySize=auto;orthogonalLoop=1;fontSize=11;endArrow=block;endFill=0;endSize=8;strokeWidth=1;shadow=0;labelBackgroundColor=none;edgeStyle=orthogonalEdgeStyle;exitX=0.5;exitY=1;exitDx=0;exitDy=0;entryX=0.5;entryY=0;entryDx=0;entryDy=0;" edge="1" parent="WIyWlLk6GJQsqaUBKTNV-1" source="_ABAwHwt_FzfQojOqL4a-52" target="_ABAwHwt_FzfQojOqL4a-53">
          <mxGeometry relative="1" as="geometry">
            <mxPoint x="2615" y="210" as="sourcePoint" />
            <mxPoint x="2615" y="250" as="targetPoint" />
            <Array as="points" />
          </mxGeometry>
        </mxCell>
        <mxCell id="_ABAwHwt_FzfQojOqL4a-55" value="" style="rounded=0;html=1;jettySize=auto;orthogonalLoop=1;fontSize=11;endArrow=block;endFill=0;endSize=8;strokeWidth=1;shadow=0;labelBackgroundColor=none;edgeStyle=orthogonalEdgeStyle;entryX=0.5;entryY=0;entryDx=0;entryDy=0;exitX=0.5;exitY=1;exitDx=0;exitDy=0;" edge="1" parent="WIyWlLk6GJQsqaUBKTNV-1" source="_ABAwHwt_FzfQojOqL4a-58" target="_ABAwHwt_FzfQojOqL4a-56">
          <mxGeometry relative="1" as="geometry">
            <mxPoint x="2625" y="460" as="sourcePoint" />
            <mxPoint x="2605" y="400" as="targetPoint" />
            <Array as="points" />
          </mxGeometry>
        </mxCell>
        <mxCell id="_ABAwHwt_FzfQojOqL4a-56" value="관리자 음식 삭제하기&amp;nbsp;&lt;br&gt;프로세스 완료" style="ellipse;whiteSpace=wrap;html=1;" vertex="1" parent="WIyWlLk6GJQsqaUBKTNV-1">
          <mxGeometry x="2510" y="480" width="190" height="70" as="geometry" />
        </mxCell>
        <mxCell id="_ABAwHwt_FzfQojOqL4a-57" value="관리자 로그인 상태" style="shape=hexagon;perimeter=hexagonPerimeter2;whiteSpace=wrap;html=1;fixedSize=1;" vertex="1" parent="WIyWlLk6GJQsqaUBKTNV-1">
          <mxGeometry x="2545" y="-40" width="120" height="40" as="geometry" />
        </mxCell>
        <mxCell id="_ABAwHwt_FzfQojOqL4a-58" value="음식 휴지통에 &lt;br&gt;음식 등록" style="shape=parallelogram;perimeter=parallelogramPerimeter;whiteSpace=wrap;html=1;fixedSize=1;" vertex="1" parent="WIyWlLk6GJQsqaUBKTNV-1">
          <mxGeometry x="2545" y="400" width="120" height="40" as="geometry" />
        </mxCell>
        <mxCell id="_ABAwHwt_FzfQojOqL4a-59" value="" style="rounded=0;html=1;jettySize=auto;orthogonalLoop=1;fontSize=11;endArrow=block;endFill=0;endSize=8;strokeWidth=1;shadow=0;labelBackgroundColor=none;edgeStyle=orthogonalEdgeStyle;entryX=0.5;entryY=0;entryDx=0;entryDy=0;" edge="1" parent="WIyWlLk6GJQsqaUBKTNV-1" source="_ABAwHwt_FzfQojOqL4a-53" target="_ABAwHwt_FzfQojOqL4a-58">
          <mxGeometry relative="1" as="geometry">
            <mxPoint x="2615" y="289.9999999999998" as="sourcePoint" />
            <mxPoint x="2615" y="329.9999999999998" as="targetPoint" />
            <Array as="points" />
          </mxGeometry>
        </mxCell>
        <mxCell id="_ABAwHwt_FzfQojOqL4a-60" value="" style="rounded=0;html=1;jettySize=auto;orthogonalLoop=1;fontSize=11;endArrow=block;endFill=0;endSize=8;strokeWidth=1;shadow=0;labelBackgroundColor=none;edgeStyle=orthogonalEdgeStyle;exitX=0.5;exitY=1;exitDx=0;exitDy=0;entryX=0.5;entryY=0;entryDx=0;entryDy=0;" edge="1" parent="WIyWlLk6GJQsqaUBKTNV-1" source="_ABAwHwt_FzfQojOqL4a-61" target="_ABAwHwt_FzfQojOqL4a-62">
          <mxGeometry relative="1" as="geometry">
            <mxPoint x="2915" y="120" as="sourcePoint" />
            <mxPoint x="2915" y="170" as="targetPoint" />
          </mxGeometry>
        </mxCell>
        <mxCell id="_ABAwHwt_FzfQojOqL4a-61" value="관리자 삭제된 음식 &lt;br&gt;복구하기 프로세스" style="ellipse;whiteSpace=wrap;html=1;" vertex="1" parent="WIyWlLk6GJQsqaUBKTNV-1">
          <mxGeometry x="2820" y="50" width="190" height="70" as="geometry" />
        </mxCell>
        <mxCell id="_ABAwHwt_FzfQojOqL4a-62" value="음식 휴지통 확인" style="rounded=1;whiteSpace=wrap;html=1;fontSize=12;glass=0;strokeWidth=1;shadow=0;" vertex="1" parent="WIyWlLk6GJQsqaUBKTNV-1">
          <mxGeometry x="2830" y="160" width="170" height="40" as="geometry" />
        </mxCell>
        <mxCell id="_ABAwHwt_FzfQojOqL4a-63" value="" style="rounded=0;html=1;jettySize=auto;orthogonalLoop=1;fontSize=11;endArrow=block;endFill=0;endSize=8;strokeWidth=1;shadow=0;labelBackgroundColor=none;edgeStyle=orthogonalEdgeStyle;exitX=0.5;exitY=1;exitDx=0;exitDy=0;entryX=0.5;entryY=0;entryDx=0;entryDy=0;" edge="1" parent="WIyWlLk6GJQsqaUBKTNV-1" source="_ABAwHwt_FzfQojOqL4a-62" target="_ABAwHwt_FzfQojOqL4a-64">
          <mxGeometry relative="1" as="geometry">
            <mxPoint x="2925" y="130" as="sourcePoint" />
            <mxPoint x="2915" y="280" as="targetPoint" />
            <Array as="points" />
          </mxGeometry>
        </mxCell>
        <mxCell id="_ABAwHwt_FzfQojOqL4a-64" value="잘못 삭제된 음식 선택" style="rounded=1;whiteSpace=wrap;html=1;fontSize=12;glass=0;strokeWidth=1;shadow=0;" vertex="1" parent="WIyWlLk6GJQsqaUBKTNV-1">
          <mxGeometry x="2830" y="240" width="170" height="40" as="geometry" />
        </mxCell>
        <mxCell id="_ABAwHwt_FzfQojOqL4a-66" value="" style="rounded=0;html=1;jettySize=auto;orthogonalLoop=1;fontSize=11;endArrow=block;endFill=0;endSize=8;strokeWidth=1;shadow=0;labelBackgroundColor=none;edgeStyle=orthogonalEdgeStyle;exitX=0.5;exitY=1;exitDx=0;exitDy=0;entryX=0.5;entryY=0;entryDx=0;entryDy=0;" edge="1" parent="WIyWlLk6GJQsqaUBKTNV-1" source="_ABAwHwt_FzfQojOqL4a-64" target="_ABAwHwt_FzfQojOqL4a-72">
          <mxGeometry relative="1" as="geometry">
            <mxPoint x="2925" y="210" as="sourcePoint" />
            <mxPoint x="2915" y="320" as="targetPoint" />
            <Array as="points" />
          </mxGeometry>
        </mxCell>
        <mxCell id="_ABAwHwt_FzfQojOqL4a-67" value="" style="rounded=0;html=1;jettySize=auto;orthogonalLoop=1;fontSize=11;endArrow=block;endFill=0;endSize=8;strokeWidth=1;shadow=0;labelBackgroundColor=none;edgeStyle=orthogonalEdgeStyle;entryX=0.5;entryY=0;entryDx=0;entryDy=0;exitX=0.5;exitY=1;exitDx=0;exitDy=0;" edge="1" parent="WIyWlLk6GJQsqaUBKTNV-1" source="_ABAwHwt_FzfQojOqL4a-70" target="_ABAwHwt_FzfQojOqL4a-68">
          <mxGeometry relative="1" as="geometry">
            <mxPoint x="2935" y="460" as="sourcePoint" />
            <mxPoint x="2915" y="400" as="targetPoint" />
            <Array as="points" />
          </mxGeometry>
        </mxCell>
        <mxCell id="_ABAwHwt_FzfQojOqL4a-68" value="관리자 삭제된 음식&lt;br&gt;복구하기 프로세스 완료" style="ellipse;whiteSpace=wrap;html=1;" vertex="1" parent="WIyWlLk6GJQsqaUBKTNV-1">
          <mxGeometry x="2820" y="480" width="190" height="70" as="geometry" />
        </mxCell>
        <mxCell id="_ABAwHwt_FzfQojOqL4a-69" value="관리자 로그인 상태" style="shape=hexagon;perimeter=hexagonPerimeter2;whiteSpace=wrap;html=1;fixedSize=1;" vertex="1" parent="WIyWlLk6GJQsqaUBKTNV-1">
          <mxGeometry x="2855" y="-40" width="120" height="40" as="geometry" />
        </mxCell>
        <mxCell id="_ABAwHwt_FzfQojOqL4a-70" value="음식 재등록" style="shape=parallelogram;perimeter=parallelogramPerimeter;whiteSpace=wrap;html=1;fixedSize=1;" vertex="1" parent="WIyWlLk6GJQsqaUBKTNV-1">
          <mxGeometry x="2855" y="400" width="120" height="40" as="geometry" />
        </mxCell>
        <mxCell id="_ABAwHwt_FzfQojOqL4a-71" value="" style="rounded=0;html=1;jettySize=auto;orthogonalLoop=1;fontSize=11;endArrow=block;endFill=0;endSize=8;strokeWidth=1;shadow=0;labelBackgroundColor=none;edgeStyle=orthogonalEdgeStyle;entryX=0.5;entryY=0;entryDx=0;entryDy=0;" edge="1" parent="WIyWlLk6GJQsqaUBKTNV-1" source="_ABAwHwt_FzfQojOqL4a-72" target="_ABAwHwt_FzfQojOqL4a-70">
          <mxGeometry relative="1" as="geometry">
            <mxPoint x="2915" y="360" as="sourcePoint" />
            <mxPoint x="2925" y="329.9999999999998" as="targetPoint" />
            <Array as="points" />
          </mxGeometry>
        </mxCell>
        <mxCell id="_ABAwHwt_FzfQojOqL4a-72" value="복구 확인" style="rounded=1;whiteSpace=wrap;html=1;fontSize=12;glass=0;strokeWidth=1;shadow=0;" vertex="1" parent="WIyWlLk6GJQsqaUBKTNV-1">
          <mxGeometry x="2830" y="320" width="170" height="40" as="geometry" />
        </mxCell>
        <mxCell id="_ABAwHwt_FzfQojOqL4a-74" value="" style="rounded=0;html=1;jettySize=auto;orthogonalLoop=1;fontSize=11;endArrow=block;endFill=0;endSize=8;strokeWidth=1;shadow=0;labelBackgroundColor=none;edgeStyle=orthogonalEdgeStyle;exitX=0.5;exitY=1;exitDx=0;exitDy=0;entryX=0.5;entryY=0;entryDx=0;entryDy=0;" edge="1" parent="WIyWlLk6GJQsqaUBKTNV-1" source="_ABAwHwt_FzfQojOqL4a-75" target="_ABAwHwt_FzfQojOqL4a-76">
          <mxGeometry relative="1" as="geometry">
            <mxPoint x="3225" y="120" as="sourcePoint" />
            <mxPoint x="3225" y="170" as="targetPoint" />
          </mxGeometry>
        </mxCell>
        <mxCell id="_ABAwHwt_FzfQojOqL4a-75" value="관리자 질문 생성하기 프로세스" style="ellipse;whiteSpace=wrap;html=1;" vertex="1" parent="WIyWlLk6GJQsqaUBKTNV-1">
          <mxGeometry x="3130" y="50" width="190" height="70" as="geometry" />
        </mxCell>
        <mxCell id="_ABAwHwt_FzfQojOqL4a-76" value="질문 내용 입력" style="rounded=1;whiteSpace=wrap;html=1;fontSize=12;glass=0;strokeWidth=1;shadow=0;" vertex="1" parent="WIyWlLk6GJQsqaUBKTNV-1">
          <mxGeometry x="3140" y="160" width="170" height="40" as="geometry" />
        </mxCell>
        <mxCell id="_ABAwHwt_FzfQojOqL4a-77" value="" style="rounded=0;html=1;jettySize=auto;orthogonalLoop=1;fontSize=11;endArrow=block;endFill=0;endSize=8;strokeWidth=1;shadow=0;labelBackgroundColor=none;edgeStyle=orthogonalEdgeStyle;exitX=0.5;exitY=1;exitDx=0;exitDy=0;entryX=0.5;entryY=0;entryDx=0;entryDy=0;" edge="1" parent="WIyWlLk6GJQsqaUBKTNV-1" source="_ABAwHwt_FzfQojOqL4a-76" target="_ABAwHwt_FzfQojOqL4a-78">
          <mxGeometry relative="1" as="geometry">
            <mxPoint x="3235" y="130" as="sourcePoint" />
            <mxPoint x="3225" y="280" as="targetPoint" />
            <Array as="points" />
          </mxGeometry>
        </mxCell>
        <mxCell id="_ABAwHwt_FzfQojOqL4a-78" value="태그 검색" style="rounded=1;whiteSpace=wrap;html=1;fontSize=12;glass=0;strokeWidth=1;shadow=0;" vertex="1" parent="WIyWlLk6GJQsqaUBKTNV-1">
          <mxGeometry x="3140" y="240" width="170" height="40" as="geometry" />
        </mxCell>
        <mxCell id="_ABAwHwt_FzfQojOqL4a-79" value="" style="rounded=0;html=1;jettySize=auto;orthogonalLoop=1;fontSize=11;endArrow=block;endFill=0;endSize=8;strokeWidth=1;shadow=0;labelBackgroundColor=none;edgeStyle=orthogonalEdgeStyle;exitX=0.5;exitY=1;exitDx=0;exitDy=0;entryX=0.5;entryY=0;entryDx=0;entryDy=0;" edge="1" parent="WIyWlLk6GJQsqaUBKTNV-1" source="_ABAwHwt_FzfQojOqL4a-78" target="_ABAwHwt_FzfQojOqL4a-85">
          <mxGeometry relative="1" as="geometry">
            <mxPoint x="3235" y="210" as="sourcePoint" />
            <mxPoint x="3225" y="320" as="targetPoint" />
            <Array as="points" />
          </mxGeometry>
        </mxCell>
        <mxCell id="_ABAwHwt_FzfQojOqL4a-80" value="" style="rounded=0;html=1;jettySize=auto;orthogonalLoop=1;fontSize=11;endArrow=block;endFill=0;endSize=8;strokeWidth=1;shadow=0;labelBackgroundColor=none;edgeStyle=orthogonalEdgeStyle;entryX=0.5;entryY=0;entryDx=0;entryDy=0;exitX=0.5;exitY=1;exitDx=0;exitDy=0;" edge="1" parent="WIyWlLk6GJQsqaUBKTNV-1" source="_ABAwHwt_FzfQojOqL4a-83" target="_ABAwHwt_FzfQojOqL4a-81">
          <mxGeometry relative="1" as="geometry">
            <mxPoint x="3245" y="460" as="sourcePoint" />
            <mxPoint x="3225" y="400" as="targetPoint" />
            <Array as="points" />
          </mxGeometry>
        </mxCell>
        <mxCell id="_ABAwHwt_FzfQojOqL4a-81" value="관리자 질문 생성하기 &lt;br&gt;프로세스 완료" style="ellipse;whiteSpace=wrap;html=1;" vertex="1" parent="WIyWlLk6GJQsqaUBKTNV-1">
          <mxGeometry x="3130" y="480" width="190" height="70" as="geometry" />
        </mxCell>
        <mxCell id="_ABAwHwt_FzfQojOqL4a-82" value="관리자 로그인 상태" style="shape=hexagon;perimeter=hexagonPerimeter2;whiteSpace=wrap;html=1;fixedSize=1;" vertex="1" parent="WIyWlLk6GJQsqaUBKTNV-1">
          <mxGeometry x="3165" y="-40" width="120" height="40" as="geometry" />
        </mxCell>
        <mxCell id="_ABAwHwt_FzfQojOqL4a-83" value="질문 등록" style="shape=parallelogram;perimeter=parallelogramPerimeter;whiteSpace=wrap;html=1;fixedSize=1;" vertex="1" parent="WIyWlLk6GJQsqaUBKTNV-1">
          <mxGeometry x="3165" y="400" width="120" height="40" as="geometry" />
        </mxCell>
        <mxCell id="_ABAwHwt_FzfQojOqL4a-84" value="" style="rounded=0;html=1;jettySize=auto;orthogonalLoop=1;fontSize=11;endArrow=block;endFill=0;endSize=8;strokeWidth=1;shadow=0;labelBackgroundColor=none;edgeStyle=orthogonalEdgeStyle;entryX=0.5;entryY=0;entryDx=0;entryDy=0;" edge="1" parent="WIyWlLk6GJQsqaUBKTNV-1" source="_ABAwHwt_FzfQojOqL4a-85" target="_ABAwHwt_FzfQojOqL4a-83">
          <mxGeometry relative="1" as="geometry">
            <mxPoint x="3225" y="360" as="sourcePoint" />
            <mxPoint x="3235" y="329.9999999999998" as="targetPoint" />
            <Array as="points" />
          </mxGeometry>
        </mxCell>
        <mxCell id="_ABAwHwt_FzfQojOqL4a-85" value="태그 선택" style="rounded=1;whiteSpace=wrap;html=1;fontSize=12;glass=0;strokeWidth=1;shadow=0;" vertex="1" parent="WIyWlLk6GJQsqaUBKTNV-1">
          <mxGeometry x="3140" y="320" width="170" height="40" as="geometry" />
        </mxCell>
        <mxCell id="_ABAwHwt_FzfQojOqL4a-86" value="" style="rounded=0;html=1;jettySize=auto;orthogonalLoop=1;fontSize=11;endArrow=block;endFill=0;endSize=8;strokeWidth=1;shadow=0;labelBackgroundColor=none;edgeStyle=orthogonalEdgeStyle;exitX=0.5;exitY=1;exitDx=0;exitDy=0;entryX=0.5;entryY=0;entryDx=0;entryDy=0;" edge="1" parent="WIyWlLk6GJQsqaUBKTNV-1" source="_ABAwHwt_FzfQojOqL4a-87" target="_ABAwHwt_FzfQojOqL4a-88">
          <mxGeometry relative="1" as="geometry">
            <mxPoint x="3535" y="120" as="sourcePoint" />
            <mxPoint x="3535" y="170" as="targetPoint" />
          </mxGeometry>
        </mxCell>
        <mxCell id="_ABAwHwt_FzfQojOqL4a-87" value="관리자 질문 생성하기 프로세스" style="ellipse;whiteSpace=wrap;html=1;" vertex="1" parent="WIyWlLk6GJQsqaUBKTNV-1">
          <mxGeometry x="3440" y="50" width="190" height="70" as="geometry" />
        </mxCell>
        <mxCell id="_ABAwHwt_FzfQojOqL4a-88" value="질문 내용 입력" style="rounded=1;whiteSpace=wrap;html=1;fontSize=12;glass=0;strokeWidth=1;shadow=0;" vertex="1" parent="WIyWlLk6GJQsqaUBKTNV-1">
          <mxGeometry x="3450" y="160" width="170" height="40" as="geometry" />
        </mxCell>
        <mxCell id="_ABAwHwt_FzfQojOqL4a-89" value="" style="rounded=0;html=1;jettySize=auto;orthogonalLoop=1;fontSize=11;endArrow=block;endFill=0;endSize=8;strokeWidth=1;shadow=0;labelBackgroundColor=none;edgeStyle=orthogonalEdgeStyle;exitX=0.5;exitY=1;exitDx=0;exitDy=0;entryX=0.5;entryY=0;entryDx=0;entryDy=0;" edge="1" parent="WIyWlLk6GJQsqaUBKTNV-1" source="_ABAwHwt_FzfQojOqL4a-88" target="_ABAwHwt_FzfQojOqL4a-90">
          <mxGeometry relative="1" as="geometry">
            <mxPoint x="3545" y="130" as="sourcePoint" />
            <mxPoint x="3535" y="280" as="targetPoint" />
            <Array as="points" />
          </mxGeometry>
        </mxCell>
        <mxCell id="_ABAwHwt_FzfQojOqL4a-90" value="태그 검색" style="rounded=1;whiteSpace=wrap;html=1;fontSize=12;glass=0;strokeWidth=1;shadow=0;" vertex="1" parent="WIyWlLk6GJQsqaUBKTNV-1">
          <mxGeometry x="3450" y="240" width="170" height="40" as="geometry" />
        </mxCell>
        <mxCell id="_ABAwHwt_FzfQojOqL4a-91" value="" style="rounded=0;html=1;jettySize=auto;orthogonalLoop=1;fontSize=11;endArrow=block;endFill=0;endSize=8;strokeWidth=1;shadow=0;labelBackgroundColor=none;edgeStyle=orthogonalEdgeStyle;exitX=0.5;exitY=1;exitDx=0;exitDy=0;entryX=0.5;entryY=0;entryDx=0;entryDy=0;" edge="1" parent="WIyWlLk6GJQsqaUBKTNV-1" source="_ABAwHwt_FzfQojOqL4a-90" target="_ABAwHwt_FzfQojOqL4a-97">
          <mxGeometry relative="1" as="geometry">
            <mxPoint x="3545" y="210" as="sourcePoint" />
            <mxPoint x="3535" y="320" as="targetPoint" />
            <Array as="points" />
          </mxGeometry>
        </mxCell>
        <mxCell id="_ABAwHwt_FzfQojOqL4a-92" value="" style="rounded=0;html=1;jettySize=auto;orthogonalLoop=1;fontSize=11;endArrow=block;endFill=0;endSize=8;strokeWidth=1;shadow=0;labelBackgroundColor=none;edgeStyle=orthogonalEdgeStyle;entryX=0.5;entryY=0;entryDx=0;entryDy=0;exitX=0.5;exitY=1;exitDx=0;exitDy=0;" edge="1" parent="WIyWlLk6GJQsqaUBKTNV-1" source="_ABAwHwt_FzfQojOqL4a-95" target="_ABAwHwt_FzfQojOqL4a-93">
          <mxGeometry relative="1" as="geometry">
            <mxPoint x="3555" y="460" as="sourcePoint" />
            <mxPoint x="3535" y="400" as="targetPoint" />
            <Array as="points" />
          </mxGeometry>
        </mxCell>
        <mxCell id="_ABAwHwt_FzfQojOqL4a-93" value="관리자 질문 생성하기 &lt;br&gt;프로세스 완료" style="ellipse;whiteSpace=wrap;html=1;" vertex="1" parent="WIyWlLk6GJQsqaUBKTNV-1">
          <mxGeometry x="3440" y="480" width="190" height="70" as="geometry" />
        </mxCell>
        <mxCell id="_ABAwHwt_FzfQojOqL4a-94" value="관리자 로그인 상태" style="shape=hexagon;perimeter=hexagonPerimeter2;whiteSpace=wrap;html=1;fixedSize=1;" vertex="1" parent="WIyWlLk6GJQsqaUBKTNV-1">
          <mxGeometry x="3475" y="-40" width="120" height="40" as="geometry" />
        </mxCell>
        <mxCell id="_ABAwHwt_FzfQojOqL4a-95" value="질문 등록" style="shape=parallelogram;perimeter=parallelogramPerimeter;whiteSpace=wrap;html=1;fixedSize=1;" vertex="1" parent="WIyWlLk6GJQsqaUBKTNV-1">
          <mxGeometry x="3475" y="400" width="120" height="40" as="geometry" />
        </mxCell>
        <mxCell id="_ABAwHwt_FzfQojOqL4a-96" value="" style="rounded=0;html=1;jettySize=auto;orthogonalLoop=1;fontSize=11;endArrow=block;endFill=0;endSize=8;strokeWidth=1;shadow=0;labelBackgroundColor=none;edgeStyle=orthogonalEdgeStyle;entryX=0.5;entryY=0;entryDx=0;entryDy=0;" edge="1" parent="WIyWlLk6GJQsqaUBKTNV-1" source="_ABAwHwt_FzfQojOqL4a-97" target="_ABAwHwt_FzfQojOqL4a-95">
          <mxGeometry relative="1" as="geometry">
            <mxPoint x="3535" y="360" as="sourcePoint" />
            <mxPoint x="3545" y="329.9999999999998" as="targetPoint" />
            <Array as="points" />
          </mxGeometry>
        </mxCell>
        <mxCell id="_ABAwHwt_FzfQojOqL4a-97" value="태그 선택" style="rounded=1;whiteSpace=wrap;html=1;fontSize=12;glass=0;strokeWidth=1;shadow=0;" vertex="1" parent="WIyWlLk6GJQsqaUBKTNV-1">
          <mxGeometry x="3450" y="320" width="170" height="40" as="geometry" />
        </mxCell>
      </root>
    </mxGraphModel>
  </diagram>
</mxfile>
